<?xml version="1.0" encoding="utf-8"?>
<!-- Generator: Adobe Illustrator 19.0.1, SVG Export Plug-In . SVG Version: 6.00 Build 0)  -->
<svg version="1.1" id="Layer_1" xmlns="http://www.w3.org/2000/svg" xmlns:xlink="http://www.w3.org/1999/xlink" x="0px" y="0px"
	 viewBox="0 0 92 92" style="enable-background:new 0 0 92 92;" xml:space="preserve">
<style type="text/css">
	.st0{fill:#EF505D;}
	.st1{fill:#999999;}
	.st2{fill:#FFFFFF;}
	.st3{fill:none;stroke:#EF505D;stroke-miterlimit:10;}
	.st4{opacity:0.2;fill:#B3B3B3;}
	.st5{fill:#F2F2F2;}
	.st6{fill:none;stroke:#000000;stroke-miterlimit:10;}
	.st7{fill:none;stroke:#000000;stroke-width:2;stroke-miterlimit:10;}
	.st8{fill:none;}
</style>
<circle class="st7" cx="45.9" cy="46.4" r="44"/>
<g>
	<path d="M44.9,32.7c0.8,1.2,1.3,2.6,1.3,4.2c0,1.7-0.4,3-1.3,4.1c-0.5,0.6-1.2,1.1-2.1,1.6c1.4,0.5,2.5,1.3,3.2,2.4
		c0.7,1.1,1.1,2.5,1.1,4c0,1.6-0.4,3.1-1.2,4.4c-0.5,0.9-1.2,1.6-2,2.2c-0.9,0.7-1.9,1.1-3.1,1.4c-1.2,0.2-2.5,0.4-3.9,0.4H24.4
		V29.8h13.3C41.1,29.8,43.5,30.8,44.9,32.7z M29.9,34.6v6.1h6.7c1.2,0,2.2-0.2,2.9-0.7c0.7-0.5,1.1-1.3,1.1-2.4
		c0-1.3-0.5-2.1-1.5-2.5c-0.9-0.3-1.9-0.4-3.3-0.4H29.9z M29.9,45.2v7.4h6.7c1.2,0,2.1-0.2,2.8-0.5c1.2-0.6,1.8-1.7,1.8-3.4
		c0-1.4-0.6-2.4-1.8-3c-0.7-0.3-1.6-0.5-2.8-0.5H29.9z"/>
	<path d="M64.8,37.4c1.4,0.6,2.6,1.6,3.5,3c0.8,1.2,1.4,2.6,1.6,4.2c0.1,0.9,0.2,2.3,0.2,4H55.3c0.1,2,0.8,3.5,2.1,4.3
		c0.8,0.5,1.8,0.8,2.9,0.8c1.2,0,2.2-0.3,3-0.9c0.4-0.3,0.8-0.8,1.1-1.4h5.4c-0.1,1.2-0.8,2.4-2,3.7c-1.8,2-4.4,3-7.7,3
		c-2.7,0-5.1-0.8-7.2-2.5c-2.1-1.7-3.1-4.4-3.1-8.2c0-3.5,0.9-6.2,2.8-8.1c1.9-1.9,4.3-2.8,7.3-2.8C61.8,36.4,63.4,36.7,64.8,37.4z
		 M56.9,42c-0.8,0.8-1.2,1.8-1.4,3.2h9.2c-0.1-1.4-0.6-2.5-1.4-3.2c-0.9-0.7-1.9-1.1-3.2-1.1C58.7,40.8,57.6,41.2,56.9,42z"/>
</g>
<rect x="51.9" y="30.1" width="16.2" height="3.6"/>
</svg>
