<?xml version="1.0" encoding="utf-8"?>
<!-- Generator: Adobe Illustrator 19.0.1, SVG Export Plug-In . SVG Version: 6.00 Build 0)  -->
<svg version="1.1" id="Layer_1" xmlns="http://www.w3.org/2000/svg" xmlns:xlink="http://www.w3.org/1999/xlink" x="0px" y="0px"
	 viewBox="0 0 330 515" style="enable-background:new 0 0 330 515;" xml:space="preserve">
<style type="text/css">
	.st0{fill:#EF505D;}
	.st1{fill:#999999;}
	.st2{fill:#FFFFFF;}
	.st3{fill:none;stroke:#EF505D;stroke-miterlimit:10;}
	.st4{opacity:0.2;fill:#B3B3B3;}
	.st5{fill:#F2F2F2;}
	.st6{fill:none;stroke:#000000;stroke-miterlimit:10;}
</style>
<g>
	<g>
		<circle class="st2" cx="87.8" cy="121.5" r="4"/>
		<circle class="st2" cx="232.1" cy="121.5" r="4"/>
		<circle class="st2" cx="160.1" cy="193.5" r="4"/>
		<path class="st2" d="M159.5,96.7V44c12.2,0,22.1,2.9,27.8,5.2L159.5,96.7z"/>
		
			<rect x="141.3" y="80.3" transform="matrix(0.5186 -0.855 0.855 0.5186 10.6977 196.2149)" class="st2" width="76.6" height="16.6"/>
		<path class="st2" d="M224.7,200.5c22.8-18.7,37.3-47.1,37.3-79c0-56.4-45.7-102.1-102.1-102.1S57.8,65.1,57.8,121.5
			c0,31.9,14.6,60.4,37.5,79.1l-7,10c-2.5,3.5-1.6,8.3,1.9,10.8c3.5,2.5,8.3,1.6,10.8-1.9l7.1-10.1c15.2,9,32.9,14.2,51.9,14.2
			c19,0,36.9-5.2,52.1-14.3l7.2,10.2c2.5,3.5,7.3,4.3,10.8,1.9c3.5-2.5,4.3-7.3,1.9-10.8L224.7,200.5z M74.9,121.5
			c0-47,38.1-85.1,85.1-85.1S245,74.5,245,121.5s-38.1,85.1-85.1,85.1S74.9,168.5,74.9,121.5z"/>
		<g>
			<path class="st2" d="M167.5,11.6V1.9H152v9.7c2.6-0.2,5.3-0.3,7.9-0.3C162.5,11.3,165,11.5,167.5,11.6z"/>
			<path class="st2" d="M118.8,19.3c-1.1-3-2.8-5.7-5.1-8c-11.3-11.3-32.8-8.2-48,6.9c-15.2,15.2-18.3,36.7-6.9,48
				c1.2,1.2,2.6,2.3,4,3.2C75,46.8,94.8,29,118.8,19.3z"/>
			<path class="st2" d="M257,69.3c1.3-0.9,2.6-1.8,3.8-3c11.3-11.3,8.2-32.8-6.9-48c-15.2-15.2-36.7-18.3-48-6.9
				c-2.2,2.2-3.9,4.9-5,7.8C224.8,28.8,244.7,46.6,257,69.3z"/>
		</g>
	</g>
	<g>
		<path class="st2" d="M37,290.7c0,10.5-9.1,16.1-18,16.1c-9.3,0-17.3-6-17.3-13.8c0-1.8,0.4-2.1,2-2.1h6.6c1.2,0,1.5,0.1,1.7,1.4
			c0.9,2.9,3.8,4.4,7,4.4c4.7,0,7.4-2.8,7.4-6.7c0-3.5-3.1-6.6-7.2-6.6c-3.6,0-5.2,1.2-7.3,2.7c-0.4,0.3-0.9,0.3-1.6,0.3h-6
			c-1.5,0-2-0.3-2-2.2l1.8-24.3c0.1-1.3,0.4-2.1,2-2.1h25.9c1.7,0,2.1,0.8,2.1,2.1v6c0,1.3-0.4,2.1-2.1,2.1H14l-0.7,8.5
			c1.4-0.9,4.4-1.8,7.5-1.8C30.1,274.7,37,281.2,37,290.7z"/>
		<path class="st2" d="M105,259.8v43.8c0,1.7-0.8,2.1-2.1,2.1h-7c-1.3,0-2.1-0.4-2.1-2.1v-24.7l-7.3,12.7c-0.4,0.6-1,1.5-2.1,1.5
			h-3.6c-1.1,0-1.7-0.9-2-1.5l-7.4-12.7v24.7c0,1.7-0.8,2.1-2.1,2.1H62c-1.3,0-2.1-0.4-2.1-2.1v-43.8c0-1.3,0.4-2.1,2.1-2.1h7.2
			c2.5,0,2.8,1.6,3.4,2.5l10,17.9l10.1-17.9c0.5-0.9,0.9-2.5,3.3-2.5h7C104.5,257.7,105,258.5,105,259.8z"/>
		<path class="st2" d="M137.3,297.8v5.8c0,1.3-0.4,2.1-2.1,2.1h-20.6c-1.7,0-2.1-0.8-2.1-2.1v-5.8c0-1.3,0.4-2.1,2.1-2.1h4.6v-27.8
			h-4.4c-1.7,0-2.1-0.8-2.1-2.1v-5.9c0-1.3,0.4-2.1,2.1-2.1h20.3c1.7,0,2.1,0.8,2.1,2.1v5.9c0,1.3-0.4,2.1-2.1,2.1h-4.4v27.8h4.6
			C136.8,295.7,137.3,296.5,137.3,297.8z"/>
		<path class="st2" d="M184.1,259.8v43.7c0,1.3-0.4,2.1-2.1,2.1h-6.6c-1.8,0-2.3-1-3.3-2.5l-15.4-25v25.4c0,1.7-0.8,2.1-2.1,2.1
			h-7.2c-1.3,0-2.1-0.4-2.1-2.1v-43.7c0-1.3,0.4-2.1,2.1-2.1h6.8c1.8,0,2.3,1,3.3,2.5l15.4,24.9v-25.3c0-1.7,0.8-2.1,2.1-2.1h7
			C183.3,257.7,184.1,258.2,184.1,259.8z"/>
		<path class="st2" d="M232.8,259.8V291c0,11.4-10.6,15.7-19.3,15.7s-19.2-4.3-19.2-15.7v-31.2c0-1.7,0.8-2.1,2.1-2.1h7.2
			c1.3,0,2.1,0.4,2.1,2.1v29.6c0,4.6,3,7.2,7.8,7.2s7.9-2.6,7.9-7.2v-29.6c0-1.7,0.8-2.1,2.1-2.1h7.2
			C232,257.7,232.8,258.2,232.8,259.8z"/>
		<path class="st2" d="M276.1,259.8v6c0,1.3-0.4,2.1-2.1,2.1h-11.1v35.5c0,1.7-0.8,2.1-2.1,2.1h-7.2c-1.3,0-2.1-0.4-2.1-2.1V268
			h-11.2c-1.7,0-2.1-0.8-2.1-2.1v-6c0-1.3,0.4-2.1,2.1-2.1H274C275.7,257.7,276.1,258.5,276.1,259.8z"/>
		<path class="st2" d="M318.8,297.6v6c0,1.3-0.4,2.1-2.1,2.1H284c-1.7,0-2.1-0.8-2.1-2.1v-43.7c0-1.3,0.4-2.1,2.1-2.1h31.4
			c1.7,0,2.1,0.8,2.1,2.1v6c0,1.3-0.4,2.1-2.1,2.1h-22v7.9H313c1.7,0,2.1,0.8,2.1,2.1v5.7c0,1.3-0.4,2.1-2.1,2.1h-19.5v9.6h23.2
			C318.4,295.5,318.8,296.3,318.8,297.6z"/>
	</g>
	<g>
		<path class="st2" d="M171.2,339.6v165.5c0,6.3-3,8-8,8h-26.4c-5,0-8-1.7-8-8v-93.4l-27.5,48.2c-1.4,2.2-3.9,5.8-8,5.8H79.5
			c-4.1,0-6.3-3.6-7.7-5.8L44,411.7v93.4c0,6.3-3,8-8,8H8.7c-5,0-8-1.7-8-8V339.6c0-5,1.7-8,8-8H36c9.4,0,10.5,6.1,12.7,9.4
			l37.7,67.7l38-67.7c1.9-3.3,3.3-9.4,12.4-9.4h26.4C169.5,331.6,171.2,334.6,171.2,339.6z"/>
		<path class="st2" d="M329.3,482.5v22.6c0,5-1.7,8-8,8H197.9c-6.3,0-8-3-8-8V339.8c0-5,1.7-8,8-8h118.7c6.3,0,8,3,8,8v22.9
			c0,5-1.7,8-8,8h-83.2v30h73.8c6.3,0,8,3,8,8v21.5c0,5-1.7,8-8,8h-73.8v36.4h87.8C327.6,474.5,329.3,477.5,329.3,482.5z"/>
	</g>
</g>
</svg>
